<mxfile host="app.diagrams.net" agent="Mozilla/5.0 (Macintosh; Intel Mac OS X 10_15_7) AppleWebKit/537.36 (KHTML, like Gecko) Chrome/129.0.0.0 Safari/537.36" version="24.7.16">
  <diagram name="第 1 页" id="kZ4ATXWcQevaxP8oKy35">
    <mxGraphModel dx="1434" dy="761" grid="1" gridSize="10" guides="1" tooltips="1" connect="1" arrows="1" fold="1" page="1" pageScale="1" pageWidth="827" pageHeight="1169" math="0" shadow="0">
      <root>
        <mxCell id="0" />
        <mxCell id="1" parent="0" />
        <mxCell id="MWBXeTFPjGJFyqo1C1ZY-1" value="LLM-as-a-Query-Generating Prompt" style="swimlane;rounded=1;align=left;fillColor=#B3B3B3;strokeWidth=2;fontSize=14;" parent="1" vertex="1">
          <mxGeometry x="60" y="170" width="610" height="330" as="geometry" />
        </mxCell>
        <mxCell id="MWBXeTFPjGJFyqo1C1ZY-2" value="&lt;div&gt;&lt;span style=&quot;background-color: initial;&quot;&gt;You are a code expert, please generate a&amp;nbsp;&lt;/span&gt;&lt;span style=&quot;background-color: initial;&quot;&gt;question&amp;nbsp;&lt;/span&gt;&lt;span style=&quot;background-color: initial;&quot;&gt;related to the selected&amp;nbsp;&lt;/span&gt;&lt;span style=&quot;background-color: initial;&quot;&gt;snippet of&amp;nbsp;&lt;/span&gt;a piece of code&lt;span style=&quot;background-color: initial;&quot;&gt;, {%- if reference selected code %}{which is related to&lt;font color=&quot;#3333ff&quot;&gt;&amp;nbsp;{intent}&lt;/font&gt;}{% endif %}{%- if reference historical dialog %}{and supplemented with historical&amp;nbsp;&lt;/span&gt;dialog&lt;span style=&quot;background-color: initial;&quot;&gt;&amp;nbsp;to generate the next round of &lt;font color=&quot;#3333ff&quot;&gt;{intent}&lt;/font&gt; related question}{% endif %}. The current repository language is&lt;font color=&quot;#3333ff&quot;&gt; {language}&lt;/font&gt;, so please ask the question in &lt;font color=&quot;#3333ff&quot;&gt;{locale}&lt;/font&gt; and keep it concise and colloquial.&lt;/span&gt;&lt;/div&gt;&lt;div&gt;&lt;div&gt;### Instruction requirement&lt;/div&gt;&lt;div&gt;&lt;font color=&quot;#3333ff&quot;&gt;{instr_requirement}&lt;/font&gt;&lt;/div&gt;&lt;div&gt;### Instruction&amp;nbsp;samples&lt;/div&gt;&lt;div&gt;Please try to mimic the style of the following questions example, using short statements to indicate your intent.&lt;/div&gt;&lt;div&gt;&lt;font color=&quot;#3333ff&quot;&gt;{instr_samples}&lt;/font&gt;&lt;/div&gt;&lt;div&gt;### The current complete code&lt;/div&gt;&lt;div&gt;&lt;font color=&quot;#3333ff&quot;&gt;{code}&lt;/font&gt;&lt;/div&gt;&lt;div&gt;{%- if selected_code %}&lt;/div&gt;&lt;div&gt;### Selected code&lt;/div&gt;&lt;div&gt;{&lt;font color=&quot;#3333ff&quot;&gt;{selected_code}&lt;/font&gt;} {% endif %}&lt;/div&gt;&lt;div&gt;{%- if historical_dialog&amp;nbsp;%}&lt;/div&gt;&lt;div&gt;### Historical dialog&lt;/div&gt;&lt;div&gt;{&lt;font color=&quot;#3333ff&quot;&gt;{historical_dialog}&lt;/font&gt;}{% endif %}&lt;/div&gt;&lt;div&gt;Please generate a question related to the selected code, taking into account the requirements of the instruction and mimicking the style of questioning.&lt;/div&gt;&lt;/div&gt;" style="text;html=1;align=left;verticalAlign=middle;whiteSpace=wrap;rounded=0;" parent="MWBXeTFPjGJFyqo1C1ZY-1" vertex="1">
          <mxGeometry x="5" y="60" width="600" height="235" as="geometry" />
        </mxCell>
      </root>
    </mxGraphModel>
  </diagram>
</mxfile>
